<?xml version="1.0" encoding="UTF-8"?>
<!DOCTYPE svg PUBLIC "-//W3C//DTD SVG 1.1//EN" "http://www.w3.org/Graphics/SVG/1.1/DTD/svg11.dtd">
<svg xmlns="http://www.w3.org/2000/svg" version="1.1" width="371px" height="288px" style="shape-rendering:geometricPrecision; text-rendering:geometricPrecision; image-rendering:optimizeQuality; fill-rule:evenodd; clip-rule:evenodd" xmlns:xlink="http://www.w3.org/1999/xlink">
<g><path style="opacity:0.184" fill="#9db0c7" d="M 184.5,15.5 C 183.167,14.1667 181.833,14.1667 180.5,15.5C 180.62,14.4138 181.287,13.7472 182.5,13.5C 183.713,13.7472 184.38,14.4138 184.5,15.5 Z"/></g>
<g><path style="opacity:0.835" fill="#6789af" d="M 180.5,15.5 C 181.084,18.285 180.084,19.9517 177.5,20.5C 177.75,18.326 178.75,16.6594 180.5,15.5 Z"/></g>
<g><path style="opacity:0.843" fill="#6888b3" d="M 184.5,15.5 C 186.25,16.6594 187.25,18.326 187.5,20.5C 184.916,19.9517 183.916,18.285 184.5,15.5 Z"/></g>
<g><path style="opacity:0.722" fill="#668ab5" d="M 177.5,20.5 C 177.464,24.1999 175.797,26.8665 172.5,28.5C 173.669,25.4887 175.336,22.822 177.5,20.5 Z"/></g>
<g><path style="opacity:0.992" fill="#698ab7" d="M 187.5,20.5 C 189.95,22.6291 191.617,25.2957 192.5,28.5C 191.292,27.7659 189.959,27.4326 188.5,27.5C 188.552,25.0971 188.219,22.7638 187.5,20.5 Z"/></g>
<g><path style="opacity:0.161" fill="#a3b7df" d="M 192.5,28.5 C 193.906,28.9731 194.573,29.9731 194.5,31.5C 193.094,31.0269 192.427,30.0269 192.5,28.5 Z"/></g>
<g><path style="opacity:0.706" fill="#7394bb" d="M 172.5,28.5 C 172.408,30.8477 171.408,32.5144 169.5,33.5C 169.75,31.326 170.75,29.6594 172.5,28.5 Z"/></g>
<g><path style="opacity:0.145" fill="#aac5e3" d="M 194.5,31.5 C 195.906,31.9731 196.573,32.9731 196.5,34.5C 195.094,34.0269 194.427,33.0269 194.5,31.5 Z"/></g>
<g><path style="opacity:0.165" fill="#9db8da" d="M 169.5,33.5 C 169.573,35.0269 168.906,36.0269 167.5,36.5C 167.427,34.9731 168.094,33.9731 169.5,33.5 Z"/></g>
<g><path style="opacity:0.137" fill="#b2ceec" d="M 196.5,34.5 C 197.906,34.9731 198.573,35.9731 198.5,37.5C 197.094,37.0269 196.427,36.0269 196.5,34.5 Z"/></g>
<g><path style="opacity:0.682" fill="#7b9ec1" d="M 167.5,36.5 C 167.408,38.8477 166.408,40.5144 164.5,41.5C 164.75,39.326 165.75,37.6594 167.5,36.5 Z"/></g>
<g><path style="opacity:0.153" fill="#b2caea" d="M 199.5,39.5 C 200.906,39.9731 201.573,40.9731 201.5,42.5C 200.094,42.0269 199.427,41.0269 199.5,39.5 Z"/></g>
<g><path style="opacity:0.702" fill="#7a96c0" d="M 164.5,41.5 C 164.408,43.8477 163.408,45.5144 161.5,46.5C 161.75,44.326 162.75,42.6594 164.5,41.5 Z"/></g>
<g><path style="opacity:0.165" fill="#a2bee1" d="M 202.5,44.5 C 203.906,44.9731 204.573,45.9731 204.5,47.5C 204.167,47.5 203.833,47.5 203.5,47.5C 202.89,46.609 202.557,45.609 202.5,44.5 Z"/></g>
<g><path style="opacity:1" fill="#1b57a3" d="M 184.5,15.5 C 183.916,18.285 184.916,19.9517 187.5,20.5C 188.219,22.7638 188.552,25.0971 188.5,27.5C 189.959,27.4326 191.292,27.7659 192.5,28.5C 192.427,30.0269 193.094,31.0269 194.5,31.5C 194.427,33.0269 195.094,34.0269 196.5,34.5C 196.427,36.0269 197.094,37.0269 198.5,37.5C 199.338,37.8417 199.672,38.5084 199.5,39.5C 199.427,41.0269 200.094,42.0269 201.5,42.5C 202.338,42.8417 202.672,43.5084 202.5,44.5C 202.557,45.609 202.89,46.609 203.5,47.5C 202.961,50.695 203.961,53.195 206.5,55C 203.442,55.4577 200.442,55.1244 197.5,54C 199.063,51.5237 198.396,50.0237 195.5,49.5C 193.734,49.4342 192.734,50.2676 192.5,52C 193.707,53.3002 194.374,54.8002 194.5,56.5C 192.396,56.2011 190.396,56.5344 188.5,57.5C 184.822,64.8942 181.155,72.2275 177.5,79.5C 175.023,81.4159 174.023,84.0825 174.5,87.5C 172.75,88.6594 171.75,90.326 171.5,92.5C 170.094,92.9731 169.427,93.9731 169.5,95.5C 166.498,98.1612 164.498,101.495 163.5,105.5C 161.75,106.659 160.75,108.326 160.5,110.5C 159.292,111.234 157.959,111.567 156.5,111.5C 156.552,113.903 156.219,116.236 155.5,118.5C 154.833,118.833 154.167,119.167 153.5,119.5C 152.5,119.5 151.5,119.5 150.5,119.5C 150.276,121.787 149.609,123.953 148.5,126C 144.795,131.138 141.462,136.471 138.5,142C 137.852,143.44 137.519,144.94 137.5,146.5C 135.459,148.839 134.126,151.505 133.5,154.5C 133.672,155.492 133.338,156.158 132.5,156.5C 131.094,156.973 130.427,157.973 130.5,159.5C 128.75,160.659 127.75,162.326 127.5,164.5C 126.094,164.973 125.427,165.973 125.5,167.5C 125.672,168.492 125.338,169.158 124.5,169.5C 122.516,169.383 120.85,170.05 119.5,171.5C 117.823,176.183 116.156,180.849 114.5,185.5C 113.292,186.234 111.959,186.567 110.5,186.5C 110.784,188.415 110.451,190.081 109.5,191.5C 108.351,191.791 107.684,192.624 107.5,194C 107.424,196.756 108.757,197.923 111.5,197.5C 111.5,198.167 111.5,198.833 111.5,199.5C 110.737,200.268 109.737,200.768 108.5,201C 109.253,202.487 110.086,202.654 111,201.5C 154,202.833 197,204.167 240,205.5C 243.285,201.197 245.785,201.53 247.5,206.5C 187.166,206.667 126.832,206.5 66.5,206C 68.4506,204.266 69.4506,202.099 69.5,199.5C 69.6287,197.784 69.962,196.117 70.5,194.5C 71.9063,194.027 72.573,193.027 72.5,191.5C 74.5587,189.74 75.892,187.406 76.5,184.5C 77.9063,184.027 78.573,183.027 78.5,181.5C 80.4077,180.514 81.4077,178.848 81.5,176.5C 82.9063,176.027 83.573,175.027 83.5,173.5C 85.4077,172.514 86.4077,170.848 86.5,168.5C 88.7593,167.656 89.7593,165.989 89.5,163.5C 91.3885,162.396 93.0552,161.063 94.5,159.5C 97.4553,155.534 100.455,151.534 103.5,147.5C 105.519,143.156 107.519,138.823 109.5,134.5C 109.629,132.784 109.962,131.117 110.5,129.5C 113.084,128.952 114.084,127.285 113.5,124.5C 114.906,124.027 115.573,123.027 115.5,121.5C 117.111,119.639 119.111,118.139 121.5,117C 122.784,116.316 123.951,116.483 125,117.5C 124.575,115.945 123.742,114.445 122.5,113C 124.184,110.756 125.184,108.256 125.5,105.5C 127.408,104.514 128.408,102.848 128.5,100.5C 130.408,99.5144 131.408,97.8477 131.5,95.5C 133.408,94.5144 134.408,92.8477 134.5,90.5C 137.797,88.8665 139.464,86.1999 139.5,82.5C 141.408,81.5144 142.408,79.8477 142.5,77.5C 144.408,76.5144 145.408,74.8477 145.5,72.5C 147.408,71.5144 148.408,69.8477 148.5,67.5C 149.906,67.0269 150.573,66.0269 150.5,64.5C 156.164,59.8614 159.83,53.8614 161.5,46.5C 163.408,45.5144 164.408,43.8477 164.5,41.5C 166.408,40.5144 167.408,38.8477 167.5,36.5C 168.906,36.0269 169.573,35.0269 169.5,33.5C 171.408,32.5144 172.408,30.8477 172.5,28.5C 175.797,26.8665 177.464,24.1999 177.5,20.5C 180.084,19.9517 181.084,18.285 180.5,15.5C 181.833,14.1667 183.167,14.1667 184.5,15.5 Z"/></g>
<g><path style="opacity:0.137" fill="#b4d0ea" d="M 204.5,47.5 C 205.906,47.9731 206.573,48.9731 206.5,50.5C 205.094,50.0269 204.427,49.0269 204.5,47.5 Z"/></g>
<g><path style="opacity:0.314" fill="#9ebad3" d="M 206.5,50.5 C 207.289,50.7828 207.956,51.2828 208.5,52C 219.883,52.2414 230.883,52.0747 241.5,51.5C 246.671,52.1276 249.337,55.1276 249.5,60.5C 249.547,62.0377 248.88,63.0377 247.5,63.5C 247.743,60.1174 247.076,56.9508 245.5,54C 232.833,53.6667 220.167,53.3333 207.5,53C 206.748,52.3292 206.414,51.4959 206.5,50.5 Z"/></g>
<g><path style="opacity:1" fill="#275798" d="M 203.5,47.5 C 203.833,47.5 204.167,47.5 204.5,47.5C 204.427,49.0269 205.094,50.0269 206.5,50.5C 206.414,51.4959 206.748,52.3292 207.5,53C 220.167,53.3333 232.833,53.6667 245.5,54C 247.076,56.9508 247.743,60.1174 247.5,63.5C 245.75,64.6594 244.75,66.326 244.5,68.5C 244.672,69.4916 244.338,70.1583 243.5,70.5C 240.595,72.756 238.928,75.756 238.5,79.5C 236.376,81.0592 234.709,83.0592 233.5,85.5C 233.762,84.0222 233.429,82.6888 232.5,81.5C 229.139,83.1783 227.472,85.845 227.5,89.5C 226.041,89.4326 224.708,89.7659 223.5,90.5C 223.5,89.8333 223.5,89.1667 223.5,88.5C 226.084,87.9517 227.084,86.285 226.5,83.5C 228.408,82.5144 229.408,80.8477 229.5,78.5C 231.408,77.5144 232.408,75.8477 232.5,73.5C 233.906,73.0269 234.573,72.0269 234.5,70.5C 237.084,69.9517 238.084,68.285 237.5,65.5C 239.446,64.9653 240.446,63.632 240.5,61.5C 240.721,60.2652 241.388,59.2652 242.5,58.5C 225.843,57.3337 209.177,57.1671 192.5,58C 191.177,58.8159 190.511,59.9826 190.5,61.5C 188.952,61.8212 188.285,62.8212 188.5,64.5C 186.75,65.6594 185.75,67.326 185.5,69.5C 183.75,70.6594 182.75,72.326 182.5,74.5C 181.094,74.9731 180.427,75.9731 180.5,77.5C 179.21,78.0577 178.377,79.0577 178,80.5C 177.601,80.2716 177.435,79.9382 177.5,79.5C 181.155,72.2275 184.822,64.8942 188.5,57.5C 190.396,56.5344 192.396,56.2011 194.5,56.5C 194.374,54.8002 193.707,53.3002 192.5,52C 192.734,50.2676 193.734,49.4342 195.5,49.5C 198.396,50.0237 199.063,51.5237 197.5,54C 200.442,55.1244 203.442,55.4577 206.5,55C 203.961,53.195 202.961,50.695 203.5,47.5 Z"/></g>
<g><path style="opacity:0.182" fill="#bfd5f2" d="M 240.5,61.5 C 240.167,61.5 239.833,61.5 239.5,61.5C 239.5,60.5 239.5,59.5 239.5,58.5C 224.163,58.3334 208.83,58.5001 193.5,59C 192.627,60.045 191.627,60.8783 190.5,61.5C 190.511,59.9826 191.177,58.8159 192.5,58C 209.177,57.1671 225.843,57.3337 242.5,58.5C 241.388,59.2652 240.721,60.2652 240.5,61.5 Z"/></g>
<g><path style="opacity:0.851" fill="#6283b3" d="M 161.5,46.5 C 159.83,53.8614 156.164,59.8614 150.5,64.5C 153.381,57.9673 157.047,51.9673 161.5,46.5 Z"/></g>
<g><path style="opacity:0.275" fill="#a0b9d8" d="M 190.5,61.5 C 190.573,63.0269 189.906,64.0269 188.5,64.5C 188.285,62.8212 188.952,61.8212 190.5,61.5 Z"/></g>
<g><path style="opacity:0.671" fill="#7a92b9" d="M 239.5,61.5 C 239.833,61.5 240.167,61.5 240.5,61.5C 240.446,63.632 239.446,64.9653 237.5,65.5C 237.66,63.847 238.326,62.5137 239.5,61.5 Z"/></g>
<g><path style="opacity:0.137" fill="#b3d2f1" d="M 247.5,63.5 C 247.25,65.674 246.25,67.3406 244.5,68.5C 244.75,66.326 245.75,64.6594 247.5,63.5 Z"/></g>
<g><path style="opacity:0.176" fill="#94b3d2" d="M 150.5,64.5 C 150.573,66.0269 149.906,67.0269 148.5,67.5C 148.427,65.9731 149.094,64.9731 150.5,64.5 Z"/></g>
<g><path style="opacity:0.137" fill="#b4ccec" d="M 188.5,64.5 C 188.25,66.674 187.25,68.3406 185.5,69.5C 185.75,67.326 186.75,65.6594 188.5,64.5 Z"/></g>
<g><path style="opacity:0.722" fill="#7794c0" d="M 237.5,65.5 C 238.084,68.285 237.084,69.9517 234.5,70.5C 234.75,68.326 235.75,66.6594 237.5,65.5 Z"/></g>
<g><path style="opacity:0.059" fill="#bfd2f0" d="M 185.5,69.5 C 185.25,71.674 184.25,73.3406 182.5,74.5C 182.75,72.326 183.75,70.6594 185.5,69.5 Z"/></g>
<g><path style="opacity:0.71" fill="#7899c0" d="M 148.5,67.5 C 148.408,69.8477 147.408,71.5144 145.5,72.5C 145.75,70.326 146.75,68.6594 148.5,67.5 Z"/></g>
<g><path style="opacity:0.176" fill="#b2c7e8" d="M 234.5,70.5 C 234.573,72.0269 233.906,73.0269 232.5,73.5C 232.427,71.9731 233.094,70.9731 234.5,70.5 Z"/></g>
<g><path style="opacity:0.114" fill="#b1cde9" d="M 243.5,70.5 C 242.226,73.7598 240.56,76.7598 238.5,79.5C 238.928,75.756 240.595,72.756 243.5,70.5 Z"/></g>
<g><path style="opacity:0.757" fill="#7293b9" d="M 145.5,72.5 C 145.408,74.8477 144.408,76.5144 142.5,77.5C 142.75,75.326 143.75,73.6594 145.5,72.5 Z"/></g>
<g><path style="opacity:0.11" fill="#c1d4ee" d="M 182.5,74.5 C 182.573,76.0269 181.906,77.0269 180.5,77.5C 180.427,75.9731 181.094,74.9731 182.5,74.5 Z"/></g>
<g><path style="opacity:0.682" fill="#8ba9ca" d="M 232.5,73.5 C 232.408,75.8477 231.408,77.5144 229.5,78.5C 229.75,76.326 230.75,74.6594 232.5,73.5 Z"/></g>
<g><path style="opacity:0.992" fill="#718fbb" d="M 180.5,77.5 C 179,81.173 177,84.5063 174.5,87.5C 174.023,84.0825 175.023,81.4159 177.5,79.5C 177.435,79.9382 177.601,80.2716 178,80.5C 178.377,79.0577 179.21,78.0577 180.5,77.5 Z"/></g>
<g><path style="opacity:0.741" fill="#708fb8" d="M 142.5,77.5 C 142.408,79.8477 141.408,81.5144 139.5,82.5C 139.75,80.326 140.75,78.6594 142.5,77.5 Z"/></g>
<g><path style="opacity:0.686" fill="#8fa5ca" d="M 229.5,78.5 C 229.408,80.8477 228.408,82.5144 226.5,83.5C 226.75,81.326 227.75,79.6594 229.5,78.5 Z"/></g>
<g><path style="opacity:0.11" fill="#bad0ea" d="M 238.5,79.5 C 237.32,82.5396 235.653,85.2063 233.5,87.5C 233.5,86.8333 233.5,86.1667 233.5,85.5C 234.709,83.0592 236.376,81.0592 238.5,79.5 Z"/></g>
<g><path style="opacity:0.871" fill="#6585b2" d="M 139.5,82.5 C 139.464,86.1999 137.797,88.8665 134.5,90.5C 135.669,87.4887 137.336,84.822 139.5,82.5 Z"/></g>
<g><path style="opacity:0.643" fill="#7c97bd" d="M 226.5,83.5 C 227.084,86.285 226.084,87.9517 223.5,88.5C 223.75,86.326 224.75,84.6594 226.5,83.5 Z"/></g>
<g><path style="opacity:0.129" fill="#b6ceec" d="M 174.5,87.5 C 174.25,89.674 173.25,91.3406 171.5,92.5C 171.75,90.326 172.75,88.6594 174.5,87.5 Z"/></g>
<g><path style="opacity:0.176" fill="#adcce9" d="M 233.5,87.5 C 233.461,88.5832 233.127,89.5832 232.5,90.5C 233.32,92.9738 234.32,95.3071 235.5,97.5C 231.334,94.6736 230.667,91.3403 233.5,87.5 Z"/></g>
<g><path style="opacity:0.675" fill="#7c97c0" d="M 223.5,88.5 C 223.5,89.1667 223.5,89.8333 223.5,90.5C 222.774,93.2878 221.107,95.2878 218.5,96.5C 219.669,93.4887 221.336,90.822 223.5,88.5 Z"/></g>
<g><path style="opacity:0.741" fill="#7090bc" d="M 134.5,90.5 C 134.408,92.8477 133.408,94.5144 131.5,95.5C 131.75,93.326 132.75,91.6594 134.5,90.5 Z"/></g>
<g><path style="opacity:0.122" fill="#accbe7" d="M 171.5,92.5 C 171.573,94.0269 170.906,95.0269 169.5,95.5C 169.427,93.9731 170.094,92.9731 171.5,92.5 Z"/></g>
<g><path style="opacity:1" fill="#1c57a3" d="M 233.5,85.5 C 233.5,86.1667 233.5,86.8333 233.5,87.5C 230.667,91.3403 231.334,94.6736 235.5,97.5C 236.338,97.8417 236.672,98.5084 236.5,99.5C 236.5,100.167 236.5,100.833 236.5,101.5C 238.788,107.41 241.622,113.077 245,118.5C 246.651,120.21 248.484,121.544 250.5,122.5C 251.505,125.721 252.339,129.054 253,132.5C 254.154,133.743 255.488,134.743 257,135.5C 256.866,140.929 259.366,144.263 264.5,145.5C 264.427,147.027 265.094,148.027 266.5,148.5C 266.427,150.027 267.094,151.027 268.5,151.5C 269.338,151.842 269.672,152.508 269.5,153.5C 269.427,155.027 270.094,156.027 271.5,156.5C 272.338,156.842 272.672,157.508 272.5,158.5C 272.427,160.027 273.094,161.027 274.5,161.5C 275.338,161.842 275.672,162.508 275.5,163.5C 275.427,165.027 276.094,166.027 277.5,166.5C 277.241,168.989 278.241,170.656 280.5,171.5C 280.5,172.167 280.5,172.833 280.5,173.5C 279.178,173.33 278.011,173.663 277,174.5C 277.514,182.259 276.347,182.426 273.5,175C 274.512,173.357 275.512,172.19 276.5,171.5C 276.196,169.559 275.363,167.893 274,166.5C 273.1,168.398 271.934,170.064 270.5,171.5C 267.628,168.298 265.628,164.632 264.5,160.5C 263.5,163 262.5,165.5 261.5,168C 262.245,169.585 262.745,171.085 263,172.5C 260.785,171.18 259.285,171.847 258.5,174.5C 257.311,175.429 255.978,175.762 254.5,175.5C 253.188,179.823 251.854,184.156 250.5,188.5C 249.5,188.5 248.5,188.5 247.5,188.5C 247.378,191.292 246.044,193.292 243.5,194.5C 243.5,193.833 243.5,193.167 243.5,192.5C 244.11,191.609 244.443,190.609 244.5,189.5C 247.682,187.754 249.349,185.087 249.5,181.5C 250.079,178.669 251.412,176.336 253.5,174.5C 254.965,173.594 255.965,172.261 256.5,170.5C 229.154,170.162 202.154,169.162 175.5,167.5C 176.906,167.027 177.573,166.027 177.5,164.5C 181.921,161.34 184.587,157.007 185.5,151.5C 186.079,148.669 187.412,146.336 189.5,144.5C 191.408,143.514 192.408,141.848 192.5,139.5C 194.408,138.514 195.408,136.848 195.5,134.5C 197.408,133.514 198.408,131.848 198.5,129.5C 200.408,128.514 201.408,126.848 201.5,124.5C 203.408,123.514 204.408,121.848 204.5,119.5C 206.25,118.341 207.25,116.674 207.5,114.5C 208.906,114.027 209.573,113.027 209.5,111.5C 211.25,110.341 212.25,108.674 212.5,106.5C 216.045,104.075 218.045,100.742 218.5,96.5C 221.107,95.2878 222.774,93.2878 223.5,90.5C 224.708,89.7659 226.041,89.4326 227.5,89.5C 227.472,85.845 229.139,83.1783 232.5,81.5C 233.429,82.6888 233.762,84.0222 233.5,85.5 Z"/></g>
<g><path style="opacity:0.737" fill="#718db7" d="M 131.5,95.5 C 131.408,97.8477 130.408,99.5144 128.5,100.5C 128.75,98.326 129.75,96.6594 131.5,95.5 Z"/></g>
<g><path style="opacity:0.71" fill="#8ba3c8" d="M 218.5,96.5 C 218.045,100.742 216.045,104.075 212.5,106.5C 214,102.827 216,99.4937 218.5,96.5 Z"/></g>
<g><path style="opacity:0.192" fill="#b2cfec" d="M 236.5,99.5 C 237.906,99.9731 238.573,100.973 238.5,102.5C 237.833,102.167 237.167,101.833 236.5,101.5C 236.5,100.833 236.5,100.167 236.5,99.5 Z"/></g>
<g><path style="opacity:0.137" fill="#a4c0e2" d="M 169.5,95.5 C 168,99.173 166,102.506 163.5,105.5C 164.498,101.495 166.498,98.1612 169.5,95.5 Z"/></g>
<g><path style="opacity:0.765" fill="#6987b1" d="M 128.5,100.5 C 128.408,102.848 127.408,104.514 125.5,105.5C 125.75,103.326 126.75,101.659 128.5,100.5 Z"/></g>
<g><path style="opacity:0.149" fill="#c3def5" d="M 238.5,102.5 C 239.906,102.973 240.573,103.973 240.5,105.5C 239.094,105.027 238.427,104.027 238.5,102.5 Z"/></g>
<g><path style="opacity:0.133" fill="#aec8e7" d="M 163.5,105.5 C 163.25,107.674 162.25,109.341 160.5,110.5C 160.75,108.326 161.75,106.659 163.5,105.5 Z"/></g>
<g><path style="opacity:0.106" fill="#c6e2f9" d="M 240.5,105.5 C 241.906,105.973 242.573,106.973 242.5,108.5C 241.094,108.027 240.427,107.027 240.5,105.5 Z"/></g>
<g><path style="opacity:0.161" fill="#afc6e6" d="M 212.5,106.5 C 212.25,108.674 211.25,110.341 209.5,111.5C 209.75,109.326 210.75,107.659 212.5,106.5 Z"/></g>
<g><path style="opacity:0.157" fill="#b7cee9" d="M 242.5,108.5 C 243.674,109.514 244.34,110.847 244.5,112.5C 242.896,111.713 242.229,110.38 242.5,108.5 Z"/></g>
<g><path style="opacity:0.776" fill="#7b96c2" d="M 160.5,110.5 C 159.331,113.511 157.664,116.178 155.5,118.5C 156.219,116.236 156.552,113.903 156.5,111.5C 157.959,111.567 159.292,111.234 160.5,110.5 Z"/></g>
<g><path style="opacity:0.941" fill="#456a9e" d="M 236.5,101.5 C 237.167,101.833 237.833,102.167 238.5,102.5C 238.427,104.027 239.094,105.027 240.5,105.5C 240.427,107.027 241.094,108.027 242.5,108.5C 242.229,110.38 242.896,111.713 244.5,112.5C 244.427,114.027 245.094,115.027 246.5,115.5C 248.588,117.336 249.921,119.669 250.5,122.5C 248.484,121.544 246.651,120.21 245,118.5C 241.622,113.077 238.788,107.41 236.5,101.5 Z"/></g>
<g><path style="opacity:0.173" fill="#b2cee9" d="M 209.5,111.5 C 209.573,113.027 208.906,114.027 207.5,114.5C 207.427,112.973 208.094,111.973 209.5,111.5 Z"/></g>
<g><path style="opacity:0.141" fill="#c4d6f3" d="M 244.5,112.5 C 245.906,112.973 246.573,113.973 246.5,115.5C 245.094,115.027 244.427,114.027 244.5,112.5 Z"/></g>
<g><path style="opacity:1" fill="#4f72aa" d="M 125.5,105.5 C 125.184,108.256 124.184,110.756 122.5,113C 123.742,114.445 124.575,115.945 125,117.5C 123.951,116.483 122.784,116.316 121.5,117C 119.111,118.139 117.111,119.639 115.5,121.5C 117.835,115.486 121.169,110.152 125.5,105.5 Z"/></g>
<g><path style="opacity:0.129" fill="#bcd2ec" d="M 207.5,114.5 C 207.25,116.674 206.25,118.341 204.5,119.5C 204.75,117.326 205.75,115.659 207.5,114.5 Z"/></g>
<g><path style="opacity:1" fill="#40649b" d="M 153.5,119.5 C 153.167,120.833 152.833,122.167 152.5,123.5C 150.273,124.401 149.273,126.067 149.5,128.5C 148.094,128.973 147.427,129.973 147.5,131.5C 147.672,132.492 147.338,133.158 146.5,133.5C 145.094,133.973 144.427,134.973 144.5,136.5C 143.416,139.004 142.083,141.337 140.5,143.5C 139.094,143.973 138.427,144.973 138.5,146.5C 138.167,146.5 137.833,146.5 137.5,146.5C 137.519,144.94 137.852,143.44 138.5,142C 141.462,136.471 144.795,131.138 148.5,126C 149.609,123.953 150.276,121.787 150.5,119.5C 151.5,119.5 152.5,119.5 153.5,119.5 Z"/></g>
<g><path style="opacity:0.129" fill="#a7c1e0" d="M 155.5,118.5 C 155.25,120.674 154.25,122.341 152.5,123.5C 152.833,122.167 153.167,120.833 153.5,119.5C 154.167,119.167 154.833,118.833 155.5,118.5 Z"/></g>
<g><path style="opacity:0.176" fill="#98b5d8" d="M 115.5,121.5 C 115.573,123.027 114.906,124.027 113.5,124.5C 113.427,122.973 114.094,121.973 115.5,121.5 Z"/></g>
<g><path style="opacity:0.694" fill="#8da9cb" d="M 204.5,119.5 C 204.408,121.848 203.408,123.514 201.5,124.5C 201.75,122.326 202.75,120.659 204.5,119.5 Z"/></g>
<g><path style="opacity:0.129" fill="#a1bddc" d="M 152.5,123.5 C 152.25,125.674 151.25,127.341 149.5,128.5C 149.273,126.067 150.273,124.401 152.5,123.5 Z"/></g>
<g><path style="opacity:0.839" fill="#6e91bc" d="M 113.5,124.5 C 114.084,127.285 113.084,128.952 110.5,129.5C 110.75,127.326 111.75,125.659 113.5,124.5 Z"/></g>
<g><path style="opacity:0.725" fill="#8aa6cb" d="M 201.5,124.5 C 201.408,126.848 200.408,128.514 198.5,129.5C 198.75,127.326 199.75,125.659 201.5,124.5 Z"/></g>
<g><path style="opacity:0.173" fill="#accfec" d="M 253.5,127.5 C 254.906,127.973 255.573,128.973 255.5,130.5C 254.094,130.027 253.427,129.027 253.5,127.5 Z"/></g>
<g><path style="opacity:0.102" fill="#afc7e7" d="M 149.5,128.5 C 149.573,130.027 148.906,131.027 147.5,131.5C 147.427,129.973 148.094,128.973 149.5,128.5 Z"/></g>
<g><path style="opacity:0.137" fill="#c0daf1" d="M 255.5,130.5 C 256.906,130.973 257.573,131.973 257.5,133.5C 256.094,133.027 255.427,132.027 255.5,130.5 Z"/></g>
<g><path style="opacity:0.725" fill="#7896bf" d="M 110.5,129.5 C 109.962,131.117 109.629,132.784 109.5,134.5C 108.833,134.5 108.167,134.5 107.5,134.5C 107.75,132.326 108.75,130.659 110.5,129.5 Z"/></g>
<g><path style="opacity:0.718" fill="#8a9fc8" d="M 198.5,129.5 C 198.408,131.848 197.408,133.514 195.5,134.5C 195.75,132.326 196.75,130.659 198.5,129.5 Z"/></g>
<g><path style="opacity:0.09" fill="#b2c8e3" d="M 146.5,133.5 C 146.573,135.027 145.906,136.027 144.5,136.5C 144.427,134.973 145.094,133.973 146.5,133.5 Z"/></g>
<g><path style="opacity:0.184" fill="#9bbbde" d="M 107.5,134.5 C 107.573,136.027 106.906,137.027 105.5,137.5C 105.427,135.973 106.094,134.973 107.5,134.5 Z"/></g>
<g><path style="opacity:0.149" fill="#bbd2ed" d="M 258.5,135.5 C 259.906,135.973 260.573,136.973 260.5,138.5C 259.094,138.027 258.427,137.027 258.5,135.5 Z"/></g>
<g><path style="opacity:0.698" fill="#84a0c5" d="M 195.5,134.5 C 195.408,136.848 194.408,138.514 192.5,139.5C 192.75,137.326 193.75,135.659 195.5,134.5 Z"/></g>
<g><path style="opacity:0.984" fill="#4a70a4" d="M 250.5,122.5 C 252.25,123.659 253.25,125.326 253.5,127.5C 253.427,129.027 254.094,130.027 255.5,130.5C 255.427,132.027 256.094,133.027 257.5,133.5C 258.338,133.842 258.672,134.508 258.5,135.5C 258.427,137.027 259.094,138.027 260.5,138.5C 262.588,140.336 263.921,142.669 264.5,145.5C 259.366,144.263 256.866,140.929 257,135.5C 255.488,134.743 254.154,133.743 253,132.5C 252.339,129.054 251.505,125.721 250.5,122.5 Z"/></g>
<g><path style="opacity:0.145" fill="#accae7" d="M 105.5,137.5 C 105.573,139.027 104.906,140.027 103.5,140.5C 103.427,138.973 104.094,137.973 105.5,137.5 Z"/></g>
<g><path style="opacity:0.706" fill="#8299c2" d="M 192.5,139.5 C 192.408,141.848 191.408,143.514 189.5,144.5C 189.75,142.326 190.75,140.659 192.5,139.5 Z"/></g>
<g><path style="opacity:0.659" fill="#7ca0c2" d="M 103.5,140.5 C 103.264,143.621 101.931,145.954 99.5,147.5C 100.079,144.669 101.412,142.336 103.5,140.5 Z"/></g>
<g><path style="opacity:0.075" fill="#b1cdf0" d="M 140.5,143.5 C 140.573,145.027 139.906,146.027 138.5,146.5C 138.427,144.973 139.094,143.973 140.5,143.5 Z"/></g>
<g><path style="opacity:0.169" fill="#afc7e4" d="M 264.5,145.5 C 265.906,145.973 266.573,146.973 266.5,148.5C 265.094,148.027 264.427,147.027 264.5,145.5 Z"/></g>
<g><path style="opacity:1" fill="#315e98" d="M 107.5,134.5 C 108.167,134.5 108.833,134.5 109.5,134.5C 107.519,138.823 105.519,143.156 103.5,147.5C 100.455,151.534 97.4553,155.534 94.5,159.5C 94.5,158.167 94.5,156.833 94.5,155.5C 95.6693,152.489 97.336,149.822 99.5,147.5C 101.931,145.954 103.264,143.621 103.5,140.5C 104.906,140.027 105.573,139.027 105.5,137.5C 106.906,137.027 107.573,136.027 107.5,134.5 Z"/></g>
<g><path style="opacity:0.133" fill="#bed1f0" d="M 266.5,148.5 C 267.906,148.973 268.573,149.973 268.5,151.5C 267.094,151.027 266.427,150.027 266.5,148.5 Z"/></g>
<g><path style="opacity:0.624" fill="#83a1cb" d="M 137.5,146.5 C 137.833,146.5 138.167,146.5 138.5,146.5C 137.617,149.704 135.95,152.371 133.5,154.5C 134.126,151.505 135.459,148.839 137.5,146.5 Z"/></g>
<g><path style="opacity:0.141" fill="#b7d2f1" d="M 269.5,153.5 C 270.906,153.973 271.573,154.973 271.5,156.5C 270.094,156.027 269.427,155.027 269.5,153.5 Z"/></g>
<g><path style="opacity:0.09" fill="#aac5e6" d="M 132.5,156.5 C 132.573,158.027 131.906,159.027 130.5,159.5C 130.427,157.973 131.094,156.973 132.5,156.5 Z"/></g>
<g><path style="opacity:0.843" fill="#5a79a8" d="M 185.5,151.5 C 184.587,157.007 181.921,161.34 177.5,164.5C 179.418,159.657 182.084,155.323 185.5,151.5 Z"/></g>
<g><path style="opacity:0.878" fill="#708fba" d="M 94.5,155.5 C 94.5,156.833 94.5,158.167 94.5,159.5C 93.0552,161.063 91.3885,162.396 89.5,163.5C 90.6693,160.489 92.336,157.822 94.5,155.5 Z"/></g>
<g><path style="opacity:0.165" fill="#abc9e7" d="M 272.5,158.5 C 273.906,158.973 274.573,159.973 274.5,161.5C 273.094,161.027 272.427,160.027 272.5,158.5 Z"/></g>
<g><path style="opacity:0.122" fill="#aabde4" d="M 130.5,159.5 C 130.25,161.674 129.25,163.341 127.5,164.5C 127.75,162.326 128.75,160.659 130.5,159.5 Z"/></g>
<g><path style="opacity:0.165" fill="#a9c0e3" d="M 275.5,163.5 C 276.906,163.973 277.573,164.973 277.5,166.5C 276.094,166.027 275.427,165.027 275.5,163.5 Z"/></g>
<g><path style="opacity:0.827" fill="#6f90ba" d="M 89.5,163.5 C 89.7593,165.989 88.7593,167.656 86.5,168.5C 87.1103,166.566 88.1103,164.899 89.5,163.5 Z"/></g>
<g><path style="opacity:0.098" fill="#a0bcdc" d="M 127.5,164.5 C 127.573,166.027 126.906,167.027 125.5,167.5C 125.427,165.973 126.094,164.973 127.5,164.5 Z"/></g>
<g><path style="opacity:0.235" fill="#92afd2" d="M 177.5,164.5 C 177.573,166.027 176.906,167.027 175.5,167.5C 175.427,165.973 176.094,164.973 177.5,164.5 Z"/></g>
<g><path style="opacity:0.262" fill="#93a9d0" d="M 175.5,167.5 C 202.154,169.162 229.154,170.162 256.5,170.5C 255.965,172.261 254.965,173.594 253.5,174.5C 253.539,173.417 253.873,172.417 254.5,171.5C 227.842,170.5 201.175,170.167 174.5,170.5C 174.263,169.209 174.596,168.209 175.5,167.5 Z"/></g>
<g><path style="opacity:0.784" fill="#7896bd" d="M 277.5,166.5 C 278.89,167.899 279.89,169.566 280.5,171.5C 278.241,170.656 277.241,168.989 277.5,166.5 Z"/></g>
<g><path style="opacity:0.749" fill="#7a98c3" d="M 86.5,168.5 C 86.4077,170.848 85.4077,172.514 83.5,173.5C 83.7497,171.326 84.7497,169.659 86.5,168.5 Z"/></g>
<g><path style="opacity:0.988" fill="#5475a9" d="M 124.5,169.5 C 121.664,175.178 118.331,180.511 114.5,185.5C 116.156,180.849 117.823,176.183 119.5,171.5C 120.85,170.05 122.516,169.383 124.5,169.5 Z"/></g>
<g><path style="opacity:0.157" fill="#acc2e2" d="M 280.5,171.5 C 282.25,172.659 283.25,174.326 283.5,176.5C 282.272,175.694 281.272,174.694 280.5,173.5C 280.5,172.833 280.5,172.167 280.5,171.5 Z"/></g>
<g><path style="opacity:1" fill="#1b57a5" d="M 280.5,173.5 C 281.272,174.694 282.272,175.694 283.5,176.5C 283.5,177.167 283.5,177.833 283.5,178.5C 283.357,180.262 283.691,181.929 284.5,183.5C 286.595,185.565 288.428,187.898 290,190.5C 290.671,191.252 291.504,191.586 292.5,191.5C 292.427,193.027 293.094,194.027 294.5,194.5C 294.427,196.027 295.094,197.027 296.5,197.5C 297.338,197.842 297.672,198.508 297.5,199.5C 297.5,200.167 297.5,200.833 297.5,201.5C 297.751,203.17 298.418,204.67 299.5,206C 295.577,206.979 291.91,206.479 288.5,204.5C 275.011,206.458 261.344,207.124 247.5,206.5C 245.785,201.53 243.285,201.197 240,205.5C 197,204.167 154,202.833 111,201.5C 110.086,202.654 109.253,202.487 108.5,201C 109.737,200.768 110.737,200.268 111.5,199.5C 154.168,199.667 196.835,199.5 239.5,199C 241.32,198.8 242.653,197.966 243.5,196.5C 243.5,195.833 243.5,195.167 243.5,194.5C 246.044,193.292 247.378,191.292 247.5,188.5C 248.5,188.5 249.5,188.5 250.5,188.5C 251.854,184.156 253.188,179.823 254.5,175.5C 255.978,175.762 257.311,175.429 258.5,174.5C 259.285,171.847 260.785,171.18 263,172.5C 262.745,171.085 262.245,169.585 261.5,168C 262.5,165.5 263.5,163 264.5,160.5C 265.628,164.632 267.628,168.298 270.5,171.5C 271.934,170.064 273.1,168.398 274,166.5C 275.363,167.893 276.196,169.559 276.5,171.5C 275.512,172.19 274.512,173.357 273.5,175C 276.347,182.426 277.514,182.259 277,174.5C 278.011,173.663 279.178,173.33 280.5,173.5 Z"/></g>
<g><path style="opacity:0.18" fill="#a0bad7" d="M 83.5,173.5 C 83.573,175.027 82.9063,176.027 81.5,176.5C 81.427,174.973 82.0937,173.973 83.5,173.5 Z"/></g>
<g><path style="opacity:0.161" fill="#b6cde9" d="M 283.5,176.5 C 284.906,176.973 285.573,177.973 285.5,179.5C 284.833,179.167 284.167,178.833 283.5,178.5C 283.5,177.833 283.5,177.167 283.5,176.5 Z"/></g>
<g><path style="opacity:0.733" fill="#86a0c7" d="M 81.5,176.5 C 81.4077,178.848 80.4077,180.514 78.5,181.5C 78.7497,179.326 79.7497,177.659 81.5,176.5 Z"/></g>
<g><path style="opacity:0.18" fill="#afc4e8" d="M 78.5,181.5 C 78.573,183.027 77.9063,184.027 76.5,184.5C 76.427,182.973 77.0937,181.973 78.5,181.5 Z"/></g>
<g><path style="opacity:0.922" fill="#4c6fa2" d="M 283.5,178.5 C 284.167,178.833 284.833,179.167 285.5,179.5C 286.338,179.842 286.672,180.508 286.5,181.5C 286.427,183.027 287.094,184.027 288.5,184.5C 290.588,186.336 291.921,188.669 292.5,191.5C 291.504,191.586 290.671,191.252 290,190.5C 288.428,187.898 286.595,185.565 284.5,183.5C 283.691,181.929 283.357,180.262 283.5,178.5 Z"/></g>
<g><path style="opacity:0.157" fill="#b3d0e9" d="M 286.5,181.5 C 287.906,181.973 288.573,182.973 288.5,184.5C 287.094,184.027 286.427,183.027 286.5,181.5 Z"/></g>
<g><path style="opacity:0.773" fill="#7794be" d="M 249.5,181.5 C 249.349,185.087 247.682,187.754 244.5,189.5C 245.383,186.296 247.05,183.629 249.5,181.5 Z"/></g>
<g><path style="opacity:0.882" fill="#6a87b5" d="M 114.5,185.5 C 113.601,188.395 112.267,191.062 110.5,193.5C 110.167,193.5 109.833,193.5 109.5,193.5C 109.5,192.833 109.5,192.167 109.5,191.5C 110.451,190.081 110.784,188.415 110.5,186.5C 111.959,186.567 113.292,186.234 114.5,185.5 Z"/></g>
<g><path style="opacity:0.776" fill="#839cc4" d="M 76.5,184.5 C 75.892,187.406 74.5587,189.74 72.5,191.5C 73.0787,188.669 74.412,186.336 76.5,184.5 Z"/></g>
<g><path style="opacity:0.188" fill="#b1cae7" d="M 244.5,189.5 C 244.443,190.609 244.11,191.609 243.5,192.5C 243.167,192.5 242.833,192.5 242.5,192.5C 242.427,190.973 243.094,189.973 244.5,189.5 Z"/></g>
<g><path style="opacity:0.212" fill="#9dbbd9" d="M 72.5,191.5 C 72.573,193.027 71.9063,194.027 70.5,194.5C 70.427,192.973 71.0937,191.973 72.5,191.5 Z"/></g>
<g><path style="opacity:0.161" fill="#a8c5e4" d="M 292.5,191.5 C 293.906,191.973 294.573,192.973 294.5,194.5C 293.094,194.027 292.427,193.027 292.5,191.5 Z"/></g>
<g><path style="opacity:0.719" fill="#30568c" d="M 109.5,191.5 C 109.5,192.167 109.5,192.833 109.5,193.5C 131.156,194.833 153.156,195.5 175.5,195.5C 197.5,195.333 219.5,195.167 241.5,195C 242.252,194.329 242.586,193.496 242.5,192.5C 242.833,192.5 243.167,192.5 243.5,192.5C 243.5,193.167 243.5,193.833 243.5,194.5C 243.5,195.167 243.5,195.833 243.5,196.5C 199.33,196.168 155.33,196.501 111.5,197.5C 108.757,197.923 107.424,196.756 107.5,194C 107.684,192.624 108.351,191.791 109.5,191.5 Z"/></g>
<g><path style="opacity:0.052" fill="#e7fbfe" d="M 242.5,192.5 C 242.586,193.496 242.252,194.329 241.5,195C 219.5,195.167 197.5,195.333 175.5,195.5C 153.156,195.5 131.156,194.833 109.5,193.5C 109.833,193.5 110.167,193.5 110.5,193.5C 153.665,194.665 196.998,194.831 240.5,194C 241.044,193.283 241.711,192.783 242.5,192.5 Z"/></g>
<g><path style="opacity:0.122" fill="#b8d1f0" d="M 294.5,194.5 C 295.906,194.973 296.573,195.973 296.5,197.5C 295.094,197.027 294.427,196.027 294.5,194.5 Z"/></g>
<g><path style="opacity:1" fill="#18589e" d="M 243.5,196.5 C 242.653,197.966 241.32,198.8 239.5,199C 196.835,199.5 154.168,199.667 111.5,199.5C 111.5,198.833 111.5,198.167 111.5,197.5C 155.33,196.501 199.33,196.168 243.5,196.5 Z"/></g>
<g><path style="opacity:0.765" fill="#809cc2" d="M 70.5,194.5 C 69.962,196.117 69.6287,197.784 69.5,199.5C 68.8333,199.5 68.1667,199.5 67.5,199.5C 67.7497,197.326 68.7497,195.659 70.5,194.5 Z"/></g>
<g><path style="opacity:0.2" fill="#a6c3dd" d="M 67.5,199.5 C 67.573,201.027 66.9063,202.027 65.5,202.5C 65.427,200.973 66.0937,199.973 67.5,199.5 Z"/></g>
<g><path style="opacity:0.184" fill="#aac8e4" d="M 297.5,199.5 C 298.906,199.973 299.573,200.973 299.5,202.5C 298.833,202.167 298.167,201.833 297.5,201.5C 297.5,200.833 297.5,200.167 297.5,199.5 Z"/></g>
<g><path style="opacity:0.843" fill="#27558f" d="M 67.5,199.5 C 68.1667,199.5 68.8333,199.5 69.5,199.5C 69.4506,202.099 68.4506,204.266 66.5,206C 126.832,206.5 187.166,206.667 247.5,206.5C 261.344,207.124 275.011,206.458 288.5,204.5C 291.91,206.479 295.577,206.979 299.5,206C 298.418,204.67 297.751,203.17 297.5,201.5C 298.167,201.833 298.833,202.167 299.5,202.5C 300.038,204.117 300.371,205.784 300.5,207.5C 221.833,207.5 143.167,207.5 64.5,207.5C 64.6287,205.784 64.962,204.117 65.5,202.5C 66.9063,202.027 67.573,201.027 67.5,199.5 Z"/></g>
<g><path style="opacity:0.293" fill="#64809d" d="M 65.5,202.5 C 64.962,204.117 64.6287,205.784 64.5,207.5C 143.167,207.5 221.833,207.5 300.5,207.5C 300.371,205.784 300.038,204.117 299.5,202.5C 301.539,203.911 302.539,205.911 302.5,208.5C 222.833,208.667 143.166,208.5 63.5,208C 62.5543,205.702 63.221,203.868 65.5,202.5 Z"/></g>
<g><path style="opacity:0.534" fill="#a8a7a7" d="M 235.5,225.5 C 235.5,234.833 235.5,244.167 235.5,253.5C 234.506,244.348 234.173,235.015 234.5,225.5C 230.5,225.5 226.5,225.5 222.5,225.5C 222.5,238.833 222.5,252.167 222.5,265.5C 231.167,265.5 239.833,265.5 248.5,265.5C 244.18,266.166 239.68,266.499 235,266.5C 230.081,266.468 225.414,265.801 221,264.5C 220.333,251.5 220.333,238.5 221,225.5C 222.574,224.152 224.407,223.486 226.5,223.5C 228.894,224.428 231.227,224.428 233.5,223.5C 234.522,223.855 235.189,224.522 235.5,225.5 Z"/></g>
<g><path style="opacity:0.829" fill="#949391" d="M 316.5,224.5 C 310.092,223.791 304.092,224.957 298.5,228C 298.018,229.008 297.852,230.175 298,231.5C 295.924,230.243 294.09,230.576 292.5,232.5C 294.903,228.621 298.403,225.954 303,224.5C 307.644,223.226 312.144,223.226 316.5,224.5 Z"/></g>
<g><path style="opacity:0.214" fill="#b1b1af" d="M 145.5,227.5 C 141.134,225.629 136.467,224.962 131.5,225.5C 131.5,238.833 131.5,252.167 131.5,265.5C 130.504,252.01 130.171,238.344 130.5,224.5C 135.347,223.354 140.014,223.52 144.5,225C 145.252,225.671 145.586,226.504 145.5,227.5 Z"/></g>
<g><path style="opacity:0.237" fill="#b2b1af" d="M 268.5,224.5 C 270.304,223.838 272.304,223.505 274.5,223.5C 277.58,223.32 280.413,223.986 283,225.5C 283.905,229.819 284.238,234.152 284,238.5C 283.667,238.833 283.333,239.167 283,239.5C 281.124,238.391 279.291,237.391 277.5,236.5C 279.144,236.286 280.644,236.62 282,237.5C 282.667,233.833 282.667,230.167 282,226.5C 281.25,225.874 280.416,225.374 279.5,225C 275.848,224.501 272.182,224.335 268.5,224.5 Z"/></g>
<g><path style="opacity:0.999" fill="#62615f" d="M 145.5,227.5 C 145.427,229.027 146.094,230.027 147.5,230.5C 147.427,232.027 148.094,233.027 149.5,233.5C 151.326,235.147 152.66,237.147 153.5,239.5C 153.712,241.384 154.712,242.717 156.5,243.5C 157.496,237.537 157.829,231.537 157.5,225.5C 160.833,225.5 164.167,225.5 167.5,225.5C 167.5,238.833 167.5,252.167 167.5,265.5C 163.5,265.5 159.5,265.5 155.5,265.5C 154.504,265.586 153.671,265.252 153,264.5C 150.275,260.615 147.775,256.615 145.5,252.5C 145.585,251.005 144.919,250.005 143.5,249.5C 142.505,254.792 142.172,260.125 142.5,265.5C 138.935,266.787 135.268,266.787 131.5,265.5C 131.5,252.167 131.5,238.833 131.5,225.5C 136.467,224.962 141.134,225.629 145.5,227.5 Z"/></g>
<g><path style="opacity:0.955" fill="#92918f" d="M 207.5,234.5 C 206.034,233.653 205.2,232.32 205,230.5C 203.15,232.962 201.983,232.462 201.5,229C 202.973,228.29 203.64,227.124 203.5,225.5C 198.156,225.334 192.823,225.501 187.5,226C 186.915,227.302 186.249,228.469 185.5,229.5C 184.923,226.45 186.09,224.45 189,223.5C 194.116,224.144 199.282,224.811 204.5,225.5C 205.801,228.427 206.801,231.427 207.5,234.5 Z"/></g>
<g><path style="opacity:0.427" fill="#adadab" d="M 41.5,227.5 C 39.5,230.167 37.1667,232.5 34.5,234.5C 35.8333,231.167 38.1667,228.833 41.5,227.5 Z"/></g>
<g><path style="opacity:0.335" fill="#b3b3b1" d="M 82.5,224.5 C 83.1174,224.611 83.6174,224.944 84,225.5C 84.7284,228.23 84.5617,230.897 83.5,233.5C 84.154,235.115 84.654,236.782 85,238.5C 87.2947,238.719 89.4614,239.052 91.5,239.5C 88.7699,240.817 85.9365,240.817 83,239.5C 82.5007,234.511 82.3341,229.511 82.5,224.5 Z"/></g>
<g><path style="opacity:0.165" fill="#c6c5c3" d="M 145.5,227.5 C 146.906,227.973 147.573,228.973 147.5,230.5C 146.094,230.027 145.427,229.027 145.5,227.5 Z"/></g>
<g><path style="opacity:0.446" fill="#b3b2b0" d="M 126.5,265.5 C 122.366,266.485 118.032,266.818 113.5,266.5C 112.427,252.855 112.26,239.188 113,225.5C 114.333,224.833 115.667,224.167 117,223.5C 120.266,224.111 123.766,224.444 127.5,224.5C 127.829,238.344 127.496,252.01 126.5,265.5 Z"/></g>
<g><path style="opacity:1" fill="#62615f" d="M 126.5,265.5 C 122.5,265.5 118.5,265.5 114.5,265.5C 114.5,252.167 114.5,238.833 114.5,225.5C 118.5,225.5 122.5,225.5 126.5,225.5C 126.5,238.833 126.5,252.167 126.5,265.5 Z"/></g>
<g><path style="opacity:0.463" fill="#adabab" d="M 155.5,265.5 C 159.5,265.5 163.5,265.5 167.5,265.5C 167.5,252.167 167.5,238.833 167.5,225.5C 164.167,225.5 160.833,225.5 157.5,225.5C 157.829,231.537 157.496,237.537 156.5,243.5C 154.712,242.717 153.712,241.384 153.5,239.5C 154.117,239.611 154.617,239.944 155,240.5C 155.171,235.136 155.671,229.802 156.5,224.5C 157.086,224.291 157.586,223.957 158,223.5C 161.667,224.167 165.333,224.833 169,225.5C 169.667,238.5 169.667,251.5 169,264.5C 166.959,265.752 164.625,266.419 162,266.5C 159.639,266.496 157.473,266.163 155.5,265.5 Z"/></g>
<g><path style="opacity:0.987" fill="#646261" d="M 316.5,224.5 C 324.621,225.953 329.954,230.62 332.5,238.5C 332.608,243.87 332.275,249.203 331.5,254.5C 324.215,266.409 313.882,269.909 300.5,265C 297.064,263.726 294.397,261.559 292.5,258.5C 291.623,255.699 290.456,253.032 289,250.5C 288.501,246.848 288.335,243.182 288.5,239.5C 288.725,236.454 290.058,234.121 292.5,232.5C 294.09,230.576 295.924,230.243 298,231.5C 297.852,230.175 298.018,229.008 298.5,228C 304.092,224.957 310.092,223.791 316.5,224.5 Z M 315.5,237.5 C 319.057,242.288 319.39,247.288 316.5,252.5C 314.938,252.733 313.605,253.4 312.5,254.5C 307.465,254.449 304.132,252.115 302.5,247.5C 302.186,243.468 303.519,240.135 306.5,237.5C 309.465,236.266 312.465,236.266 315.5,237.5 Z"/></g>
<g><path style="opacity:0.336" fill="#b5b3b4" d="M 107.5,265.5 C 107.5,252.167 107.5,238.833 107.5,225.5C 103.833,225.5 100.167,225.5 96.5,225.5C 96.8195,230.363 96.4861,235.03 95.5,239.5C 95.5,234.833 95.5,230.167 95.5,225.5C 95.7828,224.711 96.2828,224.044 97,223.5C 101.238,223.871 105.238,224.871 109,226.5C 109.667,237.833 109.667,249.167 109,260.5C 108.802,262.382 108.302,264.048 107.5,265.5 Z"/></g>
<g><path style="opacity:0.996" fill="#5f5e5d" d="M 235.5,253.5 C 239.634,254.485 243.968,254.818 248.5,254.5C 248.5,258.167 248.5,261.833 248.5,265.5C 239.833,265.5 231.167,265.5 222.5,265.5C 222.5,252.167 222.5,238.833 222.5,225.5C 226.5,225.5 230.5,225.5 234.5,225.5C 234.173,235.015 234.506,244.348 235.5,253.5 Z"/></g>
<g><path style="opacity:0.135" fill="#d4d4d2" d="M 63.5,226.5 C 64.8111,230.683 64.8111,235.016 63.5,239.5C 62.8933,239.376 62.56,239.043 62.5,238.5C 63.4834,234.702 63.8168,230.702 63.5,226.5 Z"/></g>
<g><path style="opacity:0.173" fill="#c3c2c0" d="M 147.5,230.5 C 148.906,230.973 149.573,231.973 149.5,233.5C 148.094,233.027 147.427,232.027 147.5,230.5 Z"/></g>
<g><path style="opacity:0.498" fill="#a4a3a2" d="M 258.5,229.5 C 257.557,232.109 255.89,234.109 253.5,235.5C 254.473,232.865 256.14,230.865 258.5,229.5 Z"/></g>
<g><path style="opacity:0.443" fill="#afafad" d="M 185.5,229.5 C 184.595,234.653 183.095,239.653 181,244.5C 180.617,245.056 180.117,245.389 179.5,245.5C 180.932,239.859 182.932,234.525 185.5,229.5 Z"/></g>
<g><path style="opacity:0.667" fill="#969593" d="M 276.5,236.5 C 272.017,236.075 268.683,237.741 266.5,241.5C 266.248,238.63 267.248,236.297 269.5,234.5C 271.982,235.067 274.316,235.734 276.5,236.5 Z"/></g>
<g><path style="opacity:0.997" fill="#61605e" d="M 82.5,224.5 C 82.3341,229.511 82.5007,234.511 83,239.5C 85.9365,240.817 88.7699,240.817 91.5,239.5C 92.1667,239.5 92.8333,239.5 93.5,239.5C 94.1667,239.5 94.8333,239.5 95.5,239.5C 96.4861,235.03 96.8195,230.363 96.5,225.5C 100.167,225.5 103.833,225.5 107.5,225.5C 107.5,238.833 107.5,252.167 107.5,265.5C 103.833,265.5 100.167,265.5 96.5,265.5C 96.8195,260.637 96.4861,255.97 95.5,251.5C 91.7016,250.517 87.7016,250.183 83.5,250.5C 82.5128,255.305 82.1795,260.305 82.5,265.5C 78.8333,265.5 75.1667,265.5 71.5,265.5C 71.5,252.167 71.5,238.833 71.5,225.5C 71.5,225.167 71.5,224.833 71.5,224.5C 75.2684,223.213 78.9351,223.213 82.5,224.5 Z"/></g>
<g><path style="opacity:0.062" fill="#e3e3e3" d="M 95.5,225.5 C 95.5,230.167 95.5,234.833 95.5,239.5C 94.8333,239.5 94.1667,239.5 93.5,239.5C 94.1171,234.731 94.7838,230.064 95.5,225.5 Z"/></g>
<g><path style="opacity:0.576" fill="#a9a9a9" d="M 207.5,234.5 C 208.738,236.214 209.405,238.214 209.5,240.5C 207.72,239.01 207.054,237.01 207.5,234.5 Z"/></g>
<g><path style="opacity:1" fill="#646361" d="M 268.5,224.5 C 272.182,224.335 275.848,224.501 279.5,225C 280.416,225.374 281.25,225.874 282,226.5C 282.667,230.167 282.667,233.833 282,237.5C 280.644,236.62 279.144,236.286 277.5,236.5C 277.167,236.5 276.833,236.5 276.5,236.5C 274.316,235.734 271.982,235.067 269.5,234.5C 267.248,236.297 266.248,238.63 266.5,241.5C 265.007,242.312 264.34,243.645 264.5,245.5C 264.467,248.102 265.467,250.102 267.5,251.5C 271.177,254.086 275.177,254.752 279.5,253.5C 280.5,253.5 281.5,253.5 282.5,253.5C 282.876,258.274 281.876,262.607 279.5,266.5C 271.916,267.883 264.916,266.383 258.5,262C 256.536,260.549 255.203,258.716 254.5,256.5C 252.298,249.602 251.964,242.602 253.5,235.5C 255.89,234.109 257.557,232.109 258.5,229.5C 260.983,226.259 264.316,224.592 268.5,224.5 Z"/></g>
<g><path style="opacity:0.675" fill="#898988" d="M 71.5,225.5 C 71.5,238.833 71.5,252.167 71.5,265.5C 75.1667,265.5 78.8333,265.5 82.5,265.5C 82.1795,260.305 82.5128,255.305 83.5,250.5C 83.5,255.167 83.5,259.833 83.5,264.5C 81.777,265.8 79.6103,266.467 77,266.5C 74.3897,266.467 72.223,265.8 70.5,264.5C 70.1712,251.323 70.5045,238.323 71.5,225.5 Z"/></g>
<g><path style="opacity:0.251" fill="#b8b7b6" d="M 306.5,237.5 C 303.519,240.135 302.186,243.468 302.5,247.5C 300.499,242.878 301.832,239.545 306.5,237.5 Z"/></g>
<g><path style="opacity:0.672" fill="#a7a6a6" d="M 253.5,235.5 C 251.964,242.602 252.298,249.602 254.5,256.5C 253.21,255.942 252.377,254.942 252,253.5C 249.62,247.117 250.12,241.117 253.5,235.5 Z"/></g>
<g><path style="opacity:0.469" fill="#abaaa8" d="M 34.5,234.5 C 31.6036,242.321 31.937,249.988 35.5,257.5C 30.2032,250.804 29.3699,243.471 33,235.5C 33.3826,234.944 33.8826,234.611 34.5,234.5 Z"/></g>
<g><path style="opacity:0.35" fill="#b1afb0" d="M 332.5,238.5 C 335.244,243.973 334.91,249.306 331.5,254.5C 332.275,249.203 332.608,243.87 332.5,238.5 Z"/></g>
<g><path style="opacity:0.956" fill="#888786" d="M 315.5,237.5 C 316.496,237.414 317.329,237.748 318,238.5C 319.746,241.936 321.579,244.603 323.5,246.5C 321.362,248.735 319.029,250.735 316.5,252.5C 319.39,247.288 319.057,242.288 315.5,237.5 Z"/></g>
<g><path style="opacity:0.16" fill="#cecece" d="M 71.5,224.5 C 71.5,224.833 71.5,225.167 71.5,225.5C 70.5045,238.323 70.1712,251.323 70.5,264.5C 69.8337,258.009 69.5004,251.342 69.5,244.5C 69.5032,237.465 70.1699,230.798 71.5,224.5 Z"/></g>
<g><path style="opacity:0.314" fill="#cac9c8" d="M 46.5,249.5 C 48.1667,250.5 49.5,251.833 50.5,253.5C 48.1667,253.167 46.8333,251.833 46.5,249.5 Z"/></g>
<g><path style="opacity:0.216" fill="#c3c1c2" d="M 266.5,241.5 C 266.342,244.902 266.676,248.236 267.5,251.5C 265.467,250.102 264.467,248.102 264.5,245.5C 264.34,243.645 265.007,242.312 266.5,241.5 Z"/></g>
<g><path style="opacity:0.353" fill="#b7b6b4" d="M 209.5,240.5 C 212.269,245.801 214.269,251.468 215.5,257.5C 212.326,252.313 210.326,246.647 209.5,240.5 Z"/></g>
<g><path style="opacity:0.525" fill="#aeadac" d="M 288.5,239.5 C 288.335,243.182 288.501,246.848 289,250.5C 290.456,253.032 291.623,255.699 292.5,258.5C 290.526,256.572 289.026,254.239 288,251.5C 287.188,247.311 287.355,243.311 288.5,239.5 Z"/></g>
<g><path style="opacity:0.775" fill="#919190" d="M 302.5,247.5 C 304.132,252.115 307.465,254.449 312.5,254.5C 309.56,255.83 306.56,255.663 303.5,254C 303.833,253.667 304.167,253.333 304.5,253C 302.845,251.556 302.178,249.722 302.5,247.5 Z"/></g>
<g><path style="opacity:0.993" fill="#666564" d="M 63.5,226.5 C 63.8168,230.702 63.4834,234.702 62.5,238.5C 51.2895,233.766 45.9562,237.433 46.5,249.5C 46.8333,251.833 48.1667,253.167 50.5,253.5C 52.2624,253.357 53.9291,253.691 55.5,254.5C 57.4496,253.628 59.4496,252.961 61.5,252.5C 63.4228,256.029 64.0894,260.029 63.5,264.5C 63.3893,265.117 63.056,265.617 62.5,266C 54.7618,268.236 47.4284,267.236 40.5,263C 38.2628,261.6 36.5962,259.767 35.5,257.5C 31.937,249.988 31.6036,242.321 34.5,234.5C 37.1667,232.5 39.5,230.167 41.5,227.5C 45.214,224.598 49.5473,223.265 54.5,223.5C 56.5,223.667 58.5,223.833 60.5,224C 61.9423,224.377 62.9423,225.21 63.5,226.5 Z"/></g>
<g><path style="opacity:0.137" fill="#cdcdcd" d="M 61.5,252.5 C 62.209,251.596 63.209,251.263 64.5,251.5C 64.8182,256.032 64.4849,260.366 63.5,264.5C 64.0894,260.029 63.4228,256.029 61.5,252.5 Z"/></g>
<g><path style="opacity:0.06" fill="#dddddc" d="M 83.5,250.5 C 87.7016,250.183 91.7016,250.517 95.5,251.5C 95.5,255.5 95.5,259.5 95.5,263.5C 94.5166,259.702 94.1832,255.702 94.5,251.5C 91.1667,251.5 87.8333,251.5 84.5,251.5C 84.8182,256.032 84.4849,260.366 83.5,264.5C 83.5,259.833 83.5,255.167 83.5,250.5 Z"/></g>
<g><path style="opacity:0.173" fill="#aaa9a7" d="M 145.5,252.5 C 144.883,252.389 144.383,252.056 144,251.5C 143.826,256.351 143.326,261.018 142.5,265.5C 142.172,260.125 142.505,254.792 143.5,249.5C 144.919,250.005 145.585,251.005 145.5,252.5 Z"/></g>
<g><path style="opacity:0.592" fill="#999896" d="M 179.5,246.5 C 178.359,252.973 176.693,259.306 174.5,265.5C 173.624,265.631 172.957,265.298 172.5,264.5C 174.864,258.39 177.198,252.39 179.5,246.5 Z"/></g>
<g><path style="opacity:0.064" fill="#dddcdb" d="M 281.5,252.5 C 282.209,251.596 283.209,251.263 284.5,251.5C 284.81,254.713 284.477,257.713 283.5,260.5C 284.036,257.302 283.369,254.635 281.5,252.5 Z"/></g>
<g><path style="opacity:0.498" fill="#949292" d="M 279.5,253.5 C 279.842,252.662 280.508,252.328 281.5,252.5C 283.369,254.635 284.036,257.302 283.5,260.5C 284.401,264.241 283.068,266.241 279.5,266.5C 281.876,262.607 282.876,258.274 282.5,253.5C 281.5,253.5 280.5,253.5 279.5,253.5 Z"/></g>
<g><path style="opacity:0.208" fill="#c8c7c8" d="M 235.5,225.5 C 236.494,234.652 236.827,243.985 236.5,253.5C 240.999,253.167 245.332,253.167 249.5,253.5C 249.817,257.702 249.483,261.702 248.5,265.5C 248.5,261.833 248.5,258.167 248.5,254.5C 243.968,254.818 239.634,254.485 235.5,253.5C 235.5,244.167 235.5,234.833 235.5,225.5 Z"/></g>
<g><path style="opacity:0.912" fill="#636260" d="M 207.5,234.5 C 207.054,237.01 207.72,239.01 209.5,240.5C 210.326,246.647 212.326,252.313 215.5,257.5C 215.575,260.206 215.908,262.873 216.5,265.5C 212.5,265.5 208.5,265.5 204.5,265.5C 202.915,264.526 201.915,263.026 201.5,261C 197.459,260.173 193.459,260.34 189.5,261.5C 188.872,263.258 187.872,264.758 186.5,266C 182.311,266.812 178.311,266.645 174.5,265.5C 176.693,259.306 178.359,252.973 179.5,246.5C 179.5,246.167 179.5,245.833 179.5,245.5C 180.117,245.389 180.617,245.056 181,244.5C 183.095,239.653 184.595,234.653 185.5,229.5C 186.249,228.469 186.915,227.302 187.5,226C 192.823,225.501 198.156,225.334 203.5,225.5C 203.64,227.124 202.973,228.29 201.5,229C 201.983,232.462 203.15,232.962 205,230.5C 205.2,232.32 206.034,233.653 207.5,234.5 Z M 196.5,237.5 C 196.5,238.167 196.5,238.833 196.5,239.5C 197.642,243.071 198.309,246.738 198.5,250.5C 196.5,250.5 194.5,250.5 192.5,250.5C 193.013,246.447 193.846,242.447 195,238.5C 195.383,237.944 195.883,237.611 196.5,237.5 Z"/></g>
<g><path style="opacity:0.345" fill="#b8b7b5" d="M 196.5,237.5 C 195.883,237.611 195.383,237.944 195,238.5C 193.846,242.447 193.013,246.447 192.5,250.5C 194.5,250.5 196.5,250.5 198.5,250.5C 198.309,246.738 197.642,243.071 196.5,239.5C 197.966,240.347 198.8,241.68 199,243.5C 199.497,246.146 199.664,248.813 199.5,251.5C 196.833,251.5 194.167,251.5 191.5,251.5C 191.794,245.28 193.128,239.28 195.5,233.5C 196.429,234.689 196.762,236.022 196.5,237.5 Z"/></g>
<g><path style="opacity:0.2" fill="#a3a3a1" d="M 95.5,251.5 C 96.4861,255.97 96.8195,260.637 96.5,265.5C 100.167,265.5 103.833,265.5 107.5,265.5C 103.702,266.483 99.7016,266.817 95.5,266.5C 95.5,265.5 95.5,264.5 95.5,263.5C 95.5,259.5 95.5,255.5 95.5,251.5 Z"/></g>
<g><path style="opacity:0.08" fill="#c8c7c5" d="M 215.5,257.5 C 216.67,259.65 217.67,261.984 218.5,264.5C 218.291,265.086 217.957,265.586 217.5,266C 212.98,266.814 208.646,266.647 204.5,265.5C 208.5,265.5 212.5,265.5 216.5,265.5C 215.908,262.873 215.575,260.206 215.5,257.5 Z"/></g>
</svg>
